<svg xmlns="http://www.w3.org/2000/svg" xmlns:xlink="http://www.w3.org/1999/xlink" viewBox="0,0,256,256" width="30px" height="30px" fill-rule="nonzero"><g fill="#19168d" fill-rule="nonzero" stroke="none" stroke-width="1" stroke-linecap="butt" stroke-linejoin="miter" stroke-miterlimit="10" stroke-dasharray="" stroke-dashoffset="0" font-family="none" font-weight="none" font-size="none" text-anchor="none" style="mix-blend-mode: normal"><path d="M128,256c-70.69245,0 -128,-57.30755 -128,-128v0c0,-70.69245 57.30755,-128 128,-128v0c70.69245,0 128,57.30755 128,128v0c0,70.69245 -57.30755,128 -128,128z" id="shape"></path></g><g fill="#fafafa" fill-rule="nonzero" stroke="none" stroke-width="1" stroke-linecap="butt" stroke-linejoin="miter" stroke-miterlimit="10" stroke-dasharray="" stroke-dashoffset="0" font-family="none" font-weight="none" font-size="none" text-anchor="none" style="mix-blend-mode: normal"><g transform="scale(3.2,3.2)"><path d="M54.41016,9c-0.55,-0.03 -1.02101,0.39922 -1.04102,0.94922c-0.03,0.55 0.40117,1.02078 0.95117,1.05078h0.04883c0.53,0 0.97023,-0.42094 0.99023,-0.96094c0.03,-0.55 -0.39922,-1.01906 -0.94922,-1.03906zM26.88086,9.09961c-0.55,-0.06 -1.05133,0.33086 -1.11133,0.88086c-0.07,0.55 0.33086,1.03938 0.88086,1.10938h0.10938c0.5,0 0.93023,-0.36891 0.99023,-0.87891c0.07,-0.55 -0.32914,-1.05133 -0.86914,-1.11133zM50.49414,9.74219c-0.13063,-0.00437 -0.26453,0.01836 -0.39453,0.06836c-0.51,0.2 -0.77031,0.77883 -0.57031,1.29883c0.16,0.39 0.54141,0.64063 0.94141,0.64063c0.12,0 0.23938,-0.02031 0.35938,-0.07031c0.51,-0.2 0.77031,-0.77906 0.57031,-1.28906c-0.15,-0.39 -0.51438,-0.63531 -0.90625,-0.64844zM22.75391,9.85742c-0.12875,0.02094 -0.25555,0.06758 -0.37305,0.14258c-0.47,0.29 -0.61055,0.91086 -0.31055,1.38086c0.18,0.3 0.50984,0.46875 0.83984,0.46875c0.18,0 0.3693,-0.05016 0.5293,-0.16016c0.47,-0.29 0.61031,-0.90891 0.32031,-1.37891c-0.2175,-0.345 -0.61961,-0.51594 -1.00586,-0.45313zM30.60547,10.27344c-0.38812,-0.01641 -0.76531,0.19891 -0.94531,0.56641c-0.24,0.5 -0.01953,1.09984 0.48047,1.33984c0.13,0.06 0.27992,0.08984 0.41992,0.08984c0.38,0 0.74016,-0.21031 0.91016,-0.57031c0.23,-0.5 0.01953,-1.09008 -0.48047,-1.33008c-0.125,-0.06 -0.25539,-0.09024 -0.38477,-0.0957zM57.95508,10.54297c-0.255,-0.0025 -0.51008,0.09211 -0.70508,0.28711c-0.4,0.39 -0.39977,1.02016 -0.00977,1.41016c0.19,0.2 0.44899,0.29883 0.70898,0.29883c0.25,0 0.51117,-0.08906 0.70117,-0.28906c0.39,-0.38 0.39977,-1.02016 0.00977,-1.41016c-0.195,-0.195 -0.45008,-0.29437 -0.70508,-0.29687zM46.75391,11.60547c-0.12891,0.02188 -0.25555,0.06953 -0.37305,0.14453c-0.46,0.3 -0.60078,0.92062 -0.30078,1.39063c0.19,0.29 0.51961,0.44922 0.84961,0.44922c0.18,0 0.37101,-0.05016 0.54102,-0.16016c0.46,-0.29 0.58883,-0.90891 0.29883,-1.37891c-0.225,-0.345 -0.62891,-0.51094 -1.01562,-0.44531zM34.01563,12.30664c-0.44352,-0.0132 -0.84271,0.26741 -0.98045,0.68921c-0.13774,0.4218 0.01891,0.88392 0.38474,1.13501h0.00195l0.00195,0.00195c1.64395,1.15665 3.36827,2.65345 5.11328,4.38477c-2.0117,2.14351 -4.01337,4.60072 -5.95508,7.3125c-3.83516,0.33845 -7.40655,0.94527 -10.63477,1.75781c-0.61092,-2.40165 -1.02228,-4.65818 -1.16797,-6.66016c-0.03077,-0.52402 -0.46144,-0.93508 -0.98633,-0.94141c-0.28248,-0.00378 -0.55339,0.1121 -0.74576,0.31899c-0.19238,0.20689 -0.28828,0.48549 -0.264,0.76695c0.15647,2.15008 0.5869,4.5259 1.22266,7.03125c-1.97272,0.57648 -3.79432,1.23336 -5.41797,1.96875c-0.08898,0.03858 -0.17188,0.0899 -0.24609,0.15234c-0.06071,0.01579 -0.12293,0.01674 -0.18164,0.04492c-0.5,0.23 -0.71047,0.83008 -0.48047,1.33008c0.17,0.36 0.53016,0.57031 0.91016,0.57031c0.14,0 0.28992,-0.02984 0.41992,-0.08984c0.05504,-0.02642 0.09261,-0.07115 0.14063,-0.10547c0.0905,-0.01457 0.17856,-0.04152 0.26172,-0.08008c1.51174,-0.6847 3.22925,-1.30329 5.10547,-1.85156c0.92609,3.16094 2.19694,6.51846 3.79688,9.96289c-1.40857,3.03424 -2.57623,6.00602 -3.46484,8.83008c-2.00233,-0.57044 -3.838,-1.2199 -5.43555,-1.94336h-0.00195c-0.00065,-0.00065 -0.0013,-0.0013 -0.00195,-0.00195c-0.00195,-0.00089 -0.00391,-0.00107 -0.00586,-0.00195c-0.11859,-0.05424 -0.24665,-0.08476 -0.37695,-0.08984c-0.40545,-0.01461 -0.77955,0.21717 -0.94699,0.58672c-0.16743,0.36955 -0.09502,0.80364 0.18331,1.09883v0.00195c0.08726,0.09238 0.19133,0.16729 0.30664,0.2207c0.00744,0.00357 0.01196,0.01026 0.01953,0.01367c0.01697,0.00783 0.03545,0.00911 0.05273,0.01563c1.6854,0.75985 3.58676,1.43445 5.64453,2.02344c-0.28643,1.03122 -0.54788,2.04781 -0.75781,3.0293c-0.08436,0.35287 0.02899,0.72375 0.29621,0.96915c0.26722,0.24541 0.64639,0.32685 0.99081,0.21281c0.34442,-0.11404 0.60008,-0.40566 0.66805,-0.76205c0.20241,-0.94629 0.45738,-1.93191 0.73633,-2.93359c2.88763,0.71143 6.05956,1.24332 9.43164,1.58203c2.22829,3.24311 4.55631,6.13489 6.89258,8.62305c-1.00598,0.99944 -2.00548,1.93567 -2.98633,2.75c-0.27946,0.22681 -0.41549,0.58628 -0.3562,0.94128c0.05929,0.355 0.30475,0.65076 0.64275,0.77444c0.33799,0.12369 0.71638,0.05622 0.9908,-0.17666c1.02422,-0.85033 2.06117,-1.81804 3.09961,-2.84766c1.47227,1.46233 2.9389,2.76229 4.37695,3.85938c0.00703,0.00573 0.01036,0.01395 0.01758,0.01953v-0.00586c0.2833,0.22656 0.66707,0.28196 1.00288,0.14476c0.33581,-0.1372 0.57099,-0.44548 0.61459,-0.8056c0.0436,-0.36012 -0.11122,-0.71562 -0.40458,-0.929c-1.36828,-1.04259 -2.78135,-2.29728 -4.20898,-3.71875c2.33694,-2.48573 4.66775,-5.37486 6.89844,-8.61719c3.38715,-0.3356 6.56558,-0.8751 9.4668,-1.58594c0.47661,1.70699 0.84796,3.34275 1.10156,4.87891c0.08953,0.54527 0.60414,0.91473 1.14941,0.8252c0.54527,-0.08953 0.91473,-0.60414 0.8252,-1.14941c-0.26496,-1.60497 -0.64641,-3.29953 -1.13477,-5.05664c1.69749,-0.48292 3.29264,-1.02119 4.74219,-1.62109c0.33508,-0.13337 0.57239,-0.43682 0.62109,-0.79416c0.0487,-0.35734 -0.09877,-0.71322 -0.38595,-0.93139c-0.28717,-0.21817 -0.66956,-0.26482 -1.00077,-0.1221c-1.3793,0.57083 -2.91378,1.08754 -4.55859,1.55273c-0.89328,-2.84096 -2.05503,-5.82177 -3.47461,-8.875c1.60325,-3.4487 2.86971,-6.80182 3.79883,-9.9668c1.14296,0.33215 2.24784,0.68115 3.26172,1.06641c0.51507,0.19956 1.09439,-0.05622 1.29395,-0.57129c0.19956,-0.51507 -0.05622,-1.09439 -0.57129,-1.29395c-0.00278,-0.00112 -0.00502,-0.00281 -0.00781,-0.00391c-0.00125,-0.00048 -0.00266,0.00047 -0.00391,0c-1.07471,-0.40837 -2.23674,-0.77641 -3.43555,-1.125c0.44041,-1.72563 0.78424,-3.3894 1,-4.95508v-0.00195v-0.00195c0.0433,-0.28442 -0.03798,-0.57372 -0.22308,-0.79397c-0.1851,-0.22025 -0.45609,-0.35012 -0.74372,-0.35642c-0.5094,-0.01029 -0.94511,0.36401 -1.01172,0.86914c-0.0002,0.00149 -0.00176,0.00242 -0.00195,0.00391v0.00195c0,0.00065 0,0.0013 0,0.00195c-0.20274,1.47223 -0.52844,3.05448 -0.94922,4.70313c-3.23536,-0.8099 -6.83217,-1.40103 -10.67383,-1.73633c-1.94761,-2.71667 -3.95503,-5.18784 -5.97266,-7.33203c1.44568,-1.43889 2.8755,-2.70822 4.25977,-3.75781c0.34627,-0.25561 0.49017,-0.7041 0.35726,-1.11346c-0.13291,-0.40936 -0.51282,-0.68778 -0.9432,-0.69123c-0.22486,-0.00151 -0.44366,0.0728 -0.62109,0.21094c-1.46565,1.11131 -2.96297,2.43756 -4.46484,3.92969c-1.80763,-1.78898 -3.60727,-3.35008 -5.35547,-4.58008c-0.16346,-0.11824 -0.35887,-0.18429 -0.56055,-0.18945zM20.48047,12.95703c-0.38766,0.01453 -0.75039,0.25258 -0.90039,0.64258c-0.2,0.51 0.06008,1.09102 0.58008,1.29102c0.12,0.05 0.23961,0.07031 0.34961,0.07031c0.41,0 0.78945,-0.25039 0.93945,-0.65039c0.2,-0.51 -0.06008,-1.09102 -0.58008,-1.29102c-0.1275,-0.0475 -0.25945,-0.06734 -0.38867,-0.0625zM59.92383,14.05859c-0.12734,-0.01953 -0.26203,-0.01352 -0.39453,0.02148c-0.54,0.14 -0.85852,0.67898 -0.72852,1.20898c0.12,0.46 0.52875,0.76172 0.96875,0.76172c0.08,0 0.17,-0.01125 0.25,-0.03125c0.53,-0.14 0.8607,-0.67875 0.7207,-1.21875c-0.105,-0.3975 -0.43438,-0.68359 -0.81641,-0.74219zM19.81055,16.86914c-0.55,-0.03 -1.03055,0.38141 -1.06055,0.94141c-0.04,0.55 0.37945,1.01883 0.93945,1.04883c0.02,0.01 0.04055,0.00977 0.06055,0.00977c0.52,0 0.96,-0.40945 1,-0.93945c0.03,-0.55 -0.38945,-1.03055 -0.93945,-1.06055zM60.21094,18.00977c-0.55,0 -0.99023,0.44976 -0.99023,1.00977c0,0.55 0.45,0.99023 1,0.99023c0.55,0 1,-0.45 1,-1c0,-0.55 -0.44976,-1 -1.00977,-1zM39.94336,19.94531c1.59018,1.69658 3.18392,3.6161 4.75195,5.70313c-1.53845,-0.08454 -3.09789,-0.14258 -4.69531,-0.14258c-1.63923,0 -3.23769,0.06171 -4.81445,0.15039c1.56954,-2.09517 3.165,-4.00705 4.75781,-5.71094zM40,27.50586c2.13373,0 4.21589,0.08489 6.23438,0.23828c1.39032,1.98334 2.74574,4.10272 4.03711,6.33984c1.14046,1.97589 2.17811,3.94999 3.10938,5.89648c-0.9384,1.96402 -1.97754,3.95365 -3.12891,5.94727c-0.00468,0.0084 -0.00924,0.01686 -0.01367,0.02539c-0.00535,0.00903 -0.01056,0.01815 -0.01562,0.02734c-1.00731,1.7426 -2.05641,3.4028 -3.12695,4.99414c-2.28508,0.19936 -4.65631,0.30859 -7.0957,0.30859c-2.47301,0 -4.88103,-0.10941 -7.19531,-0.31445c-1.07378,-1.59712 -2.12906,-3.25484 -3.13867,-5.00391c-1.15838,-2.00712 -2.18879,-4.00742 -3.13086,-5.98437c0.93812,-1.96209 1.97239,-3.94921 3.12305,-5.94141c0.00197,-0.00324 0.00392,-0.0065 0.00586,-0.00977c0.0033,-0.00518 0.00656,-0.01039 0.00977,-0.01562c1.2737,-2.20515 2.61091,-4.29109 3.98047,-6.25c2.05591,-0.15978 4.1698,-0.25781 6.3457,-0.25781zM48.80664,27.99023c3.09866,0.34019 6.00487,0.84999 8.64258,1.50586c-0.76244,2.58613 -1.76597,5.32104 -3.00586,8.14453c-0.75993,-1.51149 -1.55966,-3.03042 -2.43945,-4.55469c-1.02836,-1.78151 -2.1043,-3.46607 -3.19727,-5.0957zM31.07227,28.01172c-1.07092,1.60006 -2.12244,3.2561 -3.13086,5.00195c-0.0046,0.0078 -0.0094,0.01585 -0.01367,0.02344c-0.0011,0.0019 -0.00083,0.00396 -0.00195,0.00586c-0.88606,1.53432 -1.69828,3.06435 -2.46289,4.58594c-1.22714,-2.80402 -2.24372,-5.53528 -3,-8.10352c2.62611,-0.65766 5.52193,-1.16865 8.60938,-1.51367zM66.73828,30.79492c-0.39047,-0.03609 -0.78351,0.15789 -0.97852,0.52539c-0.26,0.49 -0.07008,1.08961 0.41992,1.34961c0.15,0.08 0.3107,0.11914 0.4707,0.11914c0.35,0 0.69891,-0.1893 0.87891,-0.5293c0.26,-0.48 0.06984,-1.08961 -0.41016,-1.34961c-0.1225,-0.065 -0.2507,-0.1032 -0.38086,-0.11523zM11.29297,32.17188c-0.2525,-0.04375 -0.52391,0.00797 -0.75391,0.16797c-0.45,0.32 -0.55828,0.94062 -0.23828,1.39063c0.2,0.28 0.50836,0.42969 0.81836,0.42969c0.2,0 0.40031,-0.05945 0.57031,-0.18945l0.00977,0.00977c0.45,-0.32 0.56023,-0.95039 0.24023,-1.40039c-0.16,-0.225 -0.39398,-0.36445 -0.64648,-0.4082zM69.89258,33.00195c-0.255,0.02 -0.50164,0.13766 -0.68164,0.34766c-0.36,0.42 -0.30086,1.05016 0.11914,1.41016c0.19,0.16 0.42063,0.24023 0.64063,0.24023c0.29,0 0.56953,-0.11937 0.76953,-0.35937c0.35,-0.42 0.29891,-1.05039 -0.12109,-1.40039c-0.21,-0.18 -0.47156,-0.25828 -0.72656,-0.23828zM40,34.00391c-3.314,0 -6,2.686 -6,6c0,3.314 2.686,6 6,6c3.314,0 6,-2.686 6,-6c0,-3.314 -2.686,-6 -6,-6zM8.07031,34.9082c-0.25375,0.04 -0.49039,0.17734 -0.65039,0.40234c-0.32,0.45 -0.21953,1.08039 0.23047,1.40039c0.17,0.12 0.38008,0.18945 0.58008,0.18945c0.31,0 0.61859,-0.14992 0.80859,-0.41992c0.33,-0.45 0.22125,-1.07062 -0.21875,-1.39062c-0.225,-0.165 -0.49625,-0.22164 -0.75,-0.18164zM72.43555,36.08398c-0.12937,0.00531 -0.25977,0.0357 -0.38477,0.0957c-0.5,0.23 -0.72023,0.82031 -0.49023,1.32031c0.17,0.37 0.53016,0.58008 0.91016,0.58008c0.14,0 0.27992,-0.02984 0.41992,-0.08984c0.5,-0.23 0.72023,-0.83008 0.49023,-1.33008c-0.18,-0.375 -0.55719,-0.59211 -0.94531,-0.57617zM6.96094,38.61914c-0.54801,0.02989 -0.97775,0.48767 -0.95117,1.04492c0.022,0.53809 0.46132,0.95508 1,0.95508h0.04102c0.55,-0.02 0.97922,-0.48906 0.94922,-1.03906c-0.02,-0.56 -0.48906,-0.98094 -1.03906,-0.96094zM72.6582,39.97656c-0.38719,0.03703 -0.73742,0.30336 -0.85742,0.69336v0.00977c-0.16,0.52 0.13016,1.08 0.66016,1.25c0.09,0.03 0.19906,0.04102 0.28906,0.04102c0.43,0 0.82094,-0.27117 0.96094,-0.70117c0.16,-0.52 -0.13016,-1.08 -0.66016,-1.25c-0.13,-0.0425 -0.26351,-0.05531 -0.39258,-0.04297zM8.61523,42.25781c-0.255,-0.0275 -0.51938,0.04289 -0.73437,0.21289c-0.43,0.35 -0.50039,0.98016 -0.15039,1.41016c0.19,0.24 0.4793,0.36914 0.7793,0.36914c0.22,0 0.44109,-0.0707 0.62109,-0.2207c0.43,-0.34 0.4982,-0.96844 0.1582,-1.39844c-0.175,-0.22 -0.41883,-0.34555 -0.67383,-0.37305zM25.45508,42.32422c0.77208,1.53897 1.58227,3.08576 2.47852,4.63867c0,0.00065 0,0.0013 0,0.00195c0.73933,1.28083 1.5027,2.51307 2.27734,3.7168c-2.63955,-0.32624 -5.13253,-0.77306 -7.42383,-1.33203c0.71281,-2.25173 1.60583,-4.60854 2.66797,-7.02539zM54.44727,42.32422c1.0658,2.42394 1.95294,4.78337 2.66797,7.04102c-2.30582,0.55866 -4.79576,1.01491 -7.45117,1.33789c0.77742,-1.20595 1.54512,-2.43718 2.28711,-3.7207c0.02485,-0.03976 0.04164,-0.06961 0.06055,-0.10742c0.8784,-1.52329 1.67673,-3.04038 2.43555,-4.55078zM70.58203,43.26563c-0.255,-0.00625 -0.51289,0.08344 -0.71289,0.27344c-0.4,0.38 -0.40906,1.02188 -0.03906,1.42188c0.2,0.2 0.46047,0.29883 0.73047,0.29883c0.25,0 0.49945,-0.08953 0.68945,-0.26953c0.4,-0.38 0.4093,-1.01992 0.0293,-1.41992c-0.19,-0.195 -0.44227,-0.29844 -0.69727,-0.30469zM11.29883,44.90625c-0.25125,0.04875 -0.48367,0.19383 -0.63867,0.42383c-0.31,0.46 -0.1807,1.08062 0.2793,1.39063c0.17,0.11 0.36078,0.16992 0.55078,0.16992c0.33,0 0.64008,-0.16117 0.83008,-0.45117c0.31,-0.46 0.19047,-1.07891 -0.26953,-1.37891c-0.23,-0.155 -0.5007,-0.20305 -0.75195,-0.1543zM67.20898,45.62305c-0.12984,0.01594 -0.25891,0.05695 -0.37891,0.12695c-0.47,0.27 -0.63938,0.88938 -0.35937,1.35938c0.18,0.33 0.51937,0.5 0.85938,0.5c0.17,0 0.35,-0.03891 0.5,-0.12891c0.48,-0.28 0.64914,-0.89133 0.36914,-1.36133c-0.2025,-0.36 -0.6007,-0.54391 -0.99023,-0.49609zM34.26563,53.07227c1.86883,0.12617 3.7741,0.21094 5.73438,0.21094c1.92065,0 3.78982,-0.07976 5.62305,-0.20117c-1.86195,2.58814 -3.77342,4.92299 -5.67969,6.95898c-1.905,-2.03777 -3.81736,-4.38046 -5.67773,-6.96875zM19.9707,56.94922c-0.55,-0.06 -1.05133,0.34063 -1.11133,0.89063c-0.05,0.55 0.34062,1.03961 0.89063,1.09961c0.04,0 0.06938,0.00977 0.10938,0.00977c0.5,0 0.94023,-0.37844 0.99023,-0.89844c0.06,-0.55 -0.32891,-1.04156 -0.87891,-1.10156zM60.11914,58.42969c-0.55,0.03 -0.96945,0.50078 -0.93945,1.05078c0.03,0.53 0.47,0.93945 1,0.93945h0.06055c0.55,-0.03 0.96945,-0.50055 0.93945,-1.06055c-0.03,-0.55 -0.51055,-0.96969 -1.06055,-0.92969zM19.66992,60.93945c-0.56,0.03 -0.97922,0.50078 -0.94922,1.05078c0.02,0.53 0.47,0.94922 1,0.94922h0.04883c0.55,-0.03 0.97141,-0.49883 0.94141,-1.04883c-0.02,-0.55 -0.49102,-0.98117 -1.04102,-0.95117zM60.21094,62.41992c-0.55,-0.07 -1.06086,0.31938 -1.13086,0.85938c-0.07,0.55 0.30938,1.05086 0.85938,1.13086c0.04,0 0.09086,0.00977 0.13086,0.00977c0.49,0 0.93023,-0.36914 0.99023,-0.86914c0.08,-0.55 -0.30961,-1.05086 -0.84961,-1.13086zM20.48242,64.86133c-0.12937,-0.00687 -0.26258,0.01109 -0.39258,0.05859c-0.52,0.18 -0.78937,0.7593 -0.60937,1.2793c0.15,0.41 0.52945,0.66016 0.93945,0.66016c0.11,0 0.22984,-0.01859 0.33984,-0.05859c0.52,-0.18 0.78961,-0.76148 0.59961,-1.27148c-0.135,-0.3975 -0.48883,-0.64734 -0.87695,-0.66797zM33.98242,65.83984c-0.2525,-0.045 -0.52195,0.00516 -0.75195,0.16016c-0.45,0.32 -0.56,0.94062 -0.25,1.39063c0.2,0.28 0.51031,0.42969 0.82031,0.42969c0.2,0 0.40008,-0.04992 0.58008,-0.16992c0.45,-0.32 0.56,-0.94039 0.25,-1.40039c-0.16,-0.225 -0.39594,-0.36516 -0.64844,-0.41016zM59.01367,66.2207c-0.38719,-0.05062 -0.78414,0.13023 -0.99414,0.49023c-0.27,0.48 -0.10891,1.08914 0.37109,1.36914c0.16,0.09 0.33,0.13086 0.5,0.13086c0.35,0 0.67914,-0.18 0.86914,-0.5c0.27,-0.48 0.11086,-1.09133 -0.36914,-1.36133c-0.12,-0.07 -0.24789,-0.11203 -0.37695,-0.12891zM48.37305,67.20898c-0.38672,-0.04078 -0.77992,0.15172 -0.98242,0.51172c-0.26,0.48 -0.09133,1.08938 0.38867,1.35938c0.16,0.08 0.32023,0.11914 0.49023,0.11914c0.35,0 0.69109,-0.17977 0.87109,-0.50977c0.27,-0.48 0.09938,-1.08938 -0.39062,-1.35937c-0.12,-0.0675 -0.24805,-0.1075 -0.37695,-0.12109zM30.31641,67.83008c-0.13016,0.00391 -0.26172,0.03234 -0.38672,0.08984c-0.5,0.23 -0.72023,0.83008 -0.49023,1.33008c0.17,0.37 0.53016,0.58008 0.91016,0.58008c0.14,0 0.27992,-0.02984 0.41992,-0.08984c0.5,-0.23 0.72023,-0.83008 0.49023,-1.33008c-0.1725,-0.375 -0.55289,-0.5918 -0.94336,-0.58008zM22.5332,68.07422c-0.2525,0.0475 -0.48758,0.19102 -0.64258,0.41602c-0.31,0.45 -0.20023,1.08062 0.25977,1.39063c0.17,0.12 0.37055,0.17969 0.56055,0.17969c0.32,0 0.62813,-0.15141 0.82812,-0.44141c0.31,-0.45 0.19023,-1.06867 -0.25977,-1.38867c-0.225,-0.155 -0.49359,-0.20375 -0.74609,-0.15625zM55.98633,68.73047c-0.12969,-0.01016 -0.26398,0.00383 -0.39648,0.04883c-0.52,0.17 -0.81063,0.72977 -0.64062,1.25977c0.14,0.42 0.53117,0.69141 0.95117,0.69141c0.1,0 0.21055,-0.02078 0.31055,-0.05078c0.53,-0.17 0.80867,-0.73977 0.63867,-1.25977c-0.1275,-0.3975 -0.47422,-0.65899 -0.86328,-0.68945zM51.80078,68.73438c-0.38578,0.06281 -0.71305,0.34859 -0.81055,0.74609c-0.14,0.54 0.1907,1.07875 0.7207,1.21875v-0.00977c0.08,0.03 0.17,0.04102 0.25,0.04102c0.44,0 0.84875,-0.30977 0.96875,-0.75977c0.13,-0.54 -0.19047,-1.0807 -0.73047,-1.2207c-0.135,-0.0325 -0.26984,-0.03656 -0.39844,-0.01562zM26.43945,68.94922c-0.55,0.05 -0.96016,0.53008 -0.91016,1.08008c0.05,0.52 0.49,0.91016 1,0.91016h0.08984c0.55,-0.05 0.96039,-0.53984 0.90039,-1.08984c-0.04,-0.55 -0.53008,-0.95039 -1.08008,-0.90039z"></path></g></g></svg>